RedHatDisplay-BlackItalic.ufo
<glyph name="numbersign" format="2">
  <advance width="741"/>
  <unicode hex="0023"/>
  <outline>
    <contour>
      <point x="10" y="0" type="line"/>
      <point x="152" y="0" type="line"/>
      <point x="243" y="184" type="line"/>
      <point x="373" y="184" type="line"/>
      <point x="282" y="0" type="line"/>
      <point x="423" y="0" type="line"/>
      <point x="514" y="184" type="line"/>
      <point x="647" y="184" type="line"/>
      <point x="671" y="298" type="line"/>
      <point x="570" y="298" type="line"/>
      <point x="621" y="402" type="line"/>
      <point x="742" y="402" type="line"/>
      <point x="767" y="516" type="line"/>
      <point x="677" y="516" type="line"/>
      <point x="768" y="700" type="line"/>
      <point x="627" y="700" type="line"/>
      <point x="536" y="516" type="line"/>
      <point x="406" y="516" type="line"/>
      <point x="497" y="700" type="line"/>
      <point x="355" y="700" type="line"/>
      <point x="264" y="516" type="line"/>
      <point x="131" y="516" type="line"/>
      <point x="106" y="402" type="line"/>
      <point x="208" y="402" type="line"/>
      <point x="157" y="298" type="line"/>
      <point x="35" y="298" type="line"/>
      <point x="11" y="184" type="line"/>
      <point x="101" y="184" type="line"/>
    </contour>
    <contour>
      <point x="299" y="298" type="line"/>
      <point x="350" y="402" type="line"/>
      <point x="480" y="402" type="line"/>
      <point x="429" y="298" type="line"/>
    </contour>
  </outline>
</glyph>
<glyph name="period" format="2">
  <advance width="252"/>
  <unicode hex="002E"/>
  <outline>
    <contour>
      <point x="99" y="174" type="curve"/>
      <point x="43" y="174"/>
      <point x="-5" y="126"/>
      <point x="-5" y="70" type="curve" smooth="yes"/>
      <point x="-5" y="24"/>
      <point x="30" y="-11"/>
      <point x="77" y="-11" type="curve"/>
      <point x="131" y="-11"/>
      <point x="179" y="38"/>
      <point x="179" y="93" type="curve" smooth="yes"/>
      <point x="179" y="139"/>
      <point x="145" y="174"/>
    </contour>
  </outline>
</glyph>
<glyph name="two" format="2">
  <advance width="574"/>
  <unicode hex="0032"/>
  <outline>
    <contour>
      <point x="-18" y="0" type="line"/>
      <point x="490" y="0" type="line"/>
      <point x="519" y="134" type="line"/>
      <point x="245" y="134" type="line"/>
      <point x="434" y="273" type="line" smooth="yes"/>
      <point x="542" y="352"/>
      <point x="590" y="428"/>
      <point x="590" y="518" type="curve" smooth="yes"/>
      <point x="590" y="632"/>
      <point x="493" y="709"/>
      <point x="349" y="709" type="curve" smooth="yes"/>
      <point x="260" y="709"/>
      <point x="167" y="675"/>
      <point x="77" y="610" type="curve"/>
      <point x="142" y="497" type="line"/>
      <point x="213" y="549"/>
      <point x="267" y="571"/>
      <point x="321" y="571" type="curve" smooth="yes"/>
      <point x="388" y="571"/>
      <point x="431" y="539"/>
      <point x="431" y="489" type="curve" smooth="yes"/>
      <point x="431" y="445"/>
      <point x="400" y="402"/>
      <point x="334" y="354" type="curve" smooth="yes"/>
      <point x="6" y="112" type="line"/>
    </contour>
  </outline>
</glyph>
<glyph name="five" format="2">
  <advance width="605"/>
  <unicode hex="0035"/>
  <outline>
    <contour>
      <point x="78" y="343" type="line"/>
      <point x="176" y="303" type="line"/>
      <point x="209" y="314"/>
      <point x="246" y="321"/>
      <point x="277" y="321" type="curve" smooth="yes"/>
      <point x="353" y="321"/>
      <point x="407" y="283"/>
      <point x="407" y="229" type="curve"/>
      <point x="407" y="170"/>
      <point x="351" y="126"/>
      <point x="277" y="126" type="curve" smooth="yes"/>
      <point x="211" y="126"/>
      <point x="162" y="150"/>
      <point x="109" y="208" type="curve"/>
      <point x="-5" y="106" type="line"/>
      <point x="58" y="32"/>
      <point x="155" y="-9"/>
      <point x="269" y="-9" type="curve" smooth="yes"/>
      <point x="439" y="-9"/>
      <point x="571" y="105"/>
      <point x="571" y="252" type="curve"/>
      <point x="571" y="366"/>
      <point x="471" y="446"/>
      <point x="329" y="446" type="curve" smooth="yes"/>
      <point x="297" y="446"/>
      <point x="268" y="443"/>
      <point x="238" y="436" type="curve"/>
      <point x="271" y="565" type="line"/>
      <point x="600" y="565" type="line"/>
      <point x="629" y="700" type="line"/>
      <point x="168" y="700" type="line"/>
    </contour>
  </outline>
</glyph>
<glyph name="eight" format="2">
  <advance width="628"/>
  <unicode hex="0038"/>
  <outline>
    <contour>
      <point x="284" y="-11" type="curve" smooth="yes"/>
      <point x="450" y="-11"/>
      <point x="582" y="89"/>
      <point x="582" y="215" type="curve" smooth="yes"/>
      <point x="582" y="271"/>
      <point x="552" y="318"/>
      <point x="504" y="347" type="curve"/>
      <point x="576" y="383"/>
      <point x="627" y="452"/>
      <point x="627" y="528" type="curve" smooth="yes"/>
      <point x="627" y="634"/>
      <point x="527" y="710"/>
      <point x="386" y="710" type="curve" smooth="yes"/>
      <point x="230" y="710"/>
      <point x="103" y="610"/>
      <point x="103" y="488" type="curve" smooth="yes"/>
      <point x="103" y="439"/>
      <point x="125" y="397"/>
      <point x="162" y="368" type="curve"/>
      <point x="77" y="335"/>
      <point x="17" y="261"/>
      <point x="17" y="176" type="curve" smooth="yes"/>
      <point x="17" y="65"/>
      <point x="125" y="-11"/>
    </contour>
    <contour>
      <point x="356" y="415" type="curve" smooth="yes"/>
      <point x="299" y="415"/>
      <point x="258" y="446"/>
      <point x="258" y="488" type="curve" smooth="yes"/>
      <point x="258" y="538"/>
      <point x="310" y="579"/>
      <point x="372" y="579" type="curve" smooth="yes"/>
      <point x="427" y="579"/>
      <point x="468" y="548"/>
      <point x="468" y="505" type="curve" smooth="yes"/>
      <point x="468" y="457"/>
      <point x="416" y="415"/>
    </contour>
    <contour>
      <point x="296" y="121" type="curve" smooth="yes"/>
      <point x="227" y="121"/>
      <point x="180" y="154"/>
      <point x="180" y="202" type="curve" smooth="yes"/>
      <point x="180" y="254"/>
      <point x="236" y="295"/>
      <point x="307" y="295" type="curve" smooth="yes"/>
      <point x="376" y="295"/>
      <point x="424" y="262"/>
      <point x="424" y="215" type="curve" smooth="yes"/>
      <point x="424" y="163"/>
      <point x="367" y="121"/>
    </contour>
  </outline>
</glyph>
<glyph name="at" format="2">
  <advance width="777"/>
  <unicode hex="0040"/>
  <outline>
    <contour>
      <point x="337" y="47" type="curve" smooth="yes"/>
      <point x="374" y="47"/>
      <point x="412" y="61"/>
      <point x="441" y="87" type="curve"/>
      <point x="461" y="60"/>
      <point x="497" y="46"/>
      <point x="547" y="46" type="curve" smooth="yes"/>
      <point x="661" y="46"/>
      <point x="741" y="142"/>
      <point x="741" y="279" type="curve"/>
      <point x="741" y="450"/>
      <point x="592" y="583"/>
      <point x="401" y="583" type="curve"/>
      <point x="186" y="583"/>
      <point x="27" y="423"/>
      <point x="27" y="207" type="curve"/>
      <point x="27" y="4"/>
      <point x="184" y="-144"/>
      <point x="400" y="-144" type="curve"/>
      <point x="466" y="-144"/>
      <point x="526" y="-130"/>
      <point x="590" y="-101" type="curve"/>
      <point x="562" y="-39" type="line"/>
      <point x="514" y="-62"/>
      <point x="460" y="-74"/>
      <point x="399" y="-74" type="curve"/>
      <point x="223" y="-74"/>
      <point x="102" y="43"/>
      <point x="102" y="214" type="curve"/>
      <point x="102" y="387"/>
      <point x="230" y="519"/>
      <point x="398" y="519" type="curve"/>
      <point x="550" y="519"/>
      <point x="664" y="413"/>
      <point x="664" y="272" type="curve"/>
      <point x="664" y="181"/>
      <point x="623" y="119"/>
      <point x="563" y="119" type="curve" smooth="yes"/>
      <point x="532" y="119"/>
      <point x="517" y="136"/>
      <point x="524" y="167" type="curve" smooth="yes"/>
      <point x="568" y="375" type="line"/>
      <point x="465" y="375" type="line"/>
      <point x="461" y="357" type="line"/>
      <point x="437" y="377"/>
      <point x="405" y="388"/>
      <point x="371" y="388" type="curve" smooth="yes"/>
      <point x="270" y="388"/>
      <point x="191" y="307"/>
      <point x="191" y="203" type="curve" smooth="yes"/>
      <point x="191" y="116"/>
      <point x="255" y="47"/>
    </contour>
    <contour>
      <point x="290" y="212" type="curve" smooth="yes"/>
      <point x="290" y="261"/>
      <point x="329" y="301"/>
      <point x="375" y="301" type="curve" smooth="yes"/>
      <point x="405" y="301"/>
      <point x="428" y="290"/>
      <point x="443" y="269" type="curve"/>
      <point x="426" y="182" type="line" smooth="yes"/>
      <point x="424" y="172"/>
      <point x="423" y="163"/>
      <point x="423" y="154" type="curve"/>
      <point x="404" y="138"/>
      <point x="384" y="131"/>
      <point x="362" y="131" type="curve" smooth="yes"/>
      <point x="320" y="131"/>
      <point x="290" y="165"/>
    </contour>
  </outline>
</glyph>
<glyph name="I" format="2">
  <advance width="282"/>
  <unicode hex="0049"/>
  <anchor x="234" y="700" name="top"/>
  <anchor x="169" y="0" name="bottom"/>
  <outline>
    <contour>
      <point x="1" y="0" type="line"/>
      <point x="169" y="0" type="line"/>
      <point x="318" y="700" type="line"/>
      <point x="150" y="700" type="line"/>
    </contour>
  </outline>
</glyph>
<glyph name="R" format="2">
  <advance width="679"/>
  <unicode hex="0052"/>
  <anchor x="425" y="700" name="top"/>
  <anchor x="296" y="0" name="bottom"/>
  <outline>
    <contour>
      <point x="1" y="0" type="line"/>
      <point x="169" y="0" type="line"/>
      <point x="224" y="257" type="line"/>
      <point x="356" y="257" type="line"/>
      <point x="447" y="0" type="line"/>
      <point x="625" y="0" type="line"/>
      <point x="518" y="270" type="line"/>
      <point x="623" y="302"/>
      <point x="697" y="391"/>
      <point x="697" y="497" type="curve" smooth="yes"/>
      <point x="697" y="617"/>
      <point x="607" y="700"/>
      <point x="476" y="700" type="curve"/>
      <point x="150" y="700" type="line"/>
    </contour>
    <contour>
      <point x="446" y="553" type="line"/>
      <point x="494" y="553"/>
      <point x="525" y="525"/>
      <point x="525" y="481" type="curve" smooth="yes"/>
      <point x="525" y="433"/>
      <point x="484" y="397"/>
      <point x="429" y="397" type="curve"/>
      <point x="254" y="397" type="line"/>
      <point x="287" y="553" type="line"/>
    </contour>
  </outline>
</glyph>
<glyph name="V" format="2">
  <advance width="738"/>
  <unicode hex="0056"/>
  <outline>
    <contour>
      <point x="218" y="0" type="line"/>
      <point x="412" y="0" type="line"/>
      <point x="838" y="700" type="line"/>
      <point x="656" y="700" type="line"/>
      <point x="349" y="179" type="line"/>
      <point x="262" y="700" type="line"/>
      <point x="86" y="700" type="line"/>
    </contour>
  </outline>
</glyph>
<glyph name="W" format="2">
  <advance width="950"/>
  <unicode hex="0057"/>
  <anchor x="566" y="700" name="top"/>
  <outline>
    <contour>
      <point x="298" y="0" type="line"/>
      <point x="514" y="447" type="line"/>
      <point x="540" y="0" type="line"/>
      <point x="719" y="0" type="line"/>
      <point x="1020" y="700" type="line"/>
      <point x="847" y="700" type="line"/>
      <point x="672" y="269" type="line"/>
      <point x="644" y="700" type="line"/>
      <point x="486" y="700" type="line"/>
      <point x="275" y="267" type="line"/>
      <point x="283" y="700" type="line"/>
      <point x="116" y="700" type="line"/>
      <point x="120" y="0" type="line"/>
    </contour>
  </outline>
</glyph>
<glyph name="grave" format="2">
  <advance width="506"/>
  <unicode hex="0060"/>
  <anchor x="339" y="529" name="_top"/>
  <outline>
    <contour>
      <point x="333" y="747" type="line"/>
      <point x="155" y="747" type="line"/>
      <point x="291" y="611" type="line"/>
      <point x="418" y="611" type="line"/>
    </contour>
  </outline>
</glyph>
<glyph name="g" format="2">
  <advance width="634"/>
  <unicode hex="0067"/>
  <note>
Version created Sun Jan 13 16:53:00 2019
</note>
  <anchor x="346" y="529" name="top"/>
  <outline>
    <contour>
      <point x="263" y="-2" type="curve" smooth="yes"/>
      <point x="302" y="-2"/>
      <point x="340" y="7"/>
      <point x="374" y="25" type="curve"/>
      <point x="368" y="-5" type="line" smooth="yes"/>
      <point x="356" y="-58"/>
      <point x="321" y="-85"/>
      <point x="262" y="-85" type="curve" smooth="yes"/>
      <point x="205" y="-85"/>
      <point x="141" y="-64"/>
      <point x="83" y="-27" type="curve"/>
      <point x="11" y="-147" type="line"/>
      <point x="79" y="-192"/>
      <point x="175" y="-219"/>
      <point x="266" y="-219" type="curve" smooth="yes"/>
      <point x="407" y="-219"/>
      <point x="497" y="-150"/>
      <point x="524" y="-23" type="curve" smooth="yes"/>
      <point x="640" y="529" type="line"/>
      <point x="482" y="529" type="line"/>
      <point x="474" y="489" type="line"/>
      <point x="434" y="519"/>
      <point x="382" y="536"/>
      <point x="323" y="536" type="curve" smooth="yes"/>
      <point x="160" y="536"/>
      <point x="29" y="405"/>
      <point x="29" y="242" type="curve" smooth="yes"/>
      <point x="29" y="103"/>
      <point x="130" y="-2"/>
    </contour>
    <contour>
      <point x="185" y="256" type="curve" smooth="yes"/>
      <point x="185" y="335"/>
      <point x="248" y="398"/>
      <point x="329" y="398" type="curve" smooth="yes"/>
      <point x="374" y="398"/>
      <point x="416" y="381"/>
      <point x="444" y="354" type="curve"/>
      <point x="404" y="165" type="line"/>
      <point x="376" y="144"/>
      <point x="344" y="133"/>
      <point x="307" y="133" type="curve" smooth="yes"/>
      <point x="236" y="133"/>
      <point x="185" y="185"/>
    </contour>
  </outline>
</glyph>
<glyph name="y" format="2">
  <advance width="591"/>
  <unicode hex="0079"/>
  <anchor x="348" y="529" name="top"/>
  <outline>
    <contour>
      <point x="135" y="-9" type="line" smooth="yes"/>
      <point x="107" y="-51"/>
      <point x="72" y="-71"/>
      <point x="24" y="-71" type="curve" smooth="yes"/>
      <point x="3" y="-71"/>
      <point x="-14" y="-69"/>
      <point x="-27" y="-65" type="curve"/>
      <point x="-56" y="-202" type="line"/>
      <point x="-29" y="-209"/>
      <point x="0" y="-213"/>
      <point x="33" y="-213" type="curve" smooth="yes"/>
      <point x="141" y="-213"/>
      <point x="214" y="-167"/>
      <point x="285" y="-54" type="curve" smooth="yes"/>
      <point x="652" y="529" type="line"/>
      <point x="479" y="529" type="line"/>
      <point x="269" y="183" type="line"/>
      <point x="223" y="529" type="line"/>
      <point x="54" y="529" type="line"/>
      <point x="141" y="0" type="line"/>
    </contour>
  </outline>
</glyph>
<glyph name="asciitilde" format="2">
  <advance width="606"/>
  <unicode hex="007E"/>
  <outline>
    <contour>
      <point x="309" y="446" type="line" smooth="yes"/>
      <point x="273" y="466"/>
      <point x="234" y="478"/>
      <point x="203" y="478" type="curve" smooth="yes"/>
      <point x="129" y="478"/>
      <point x="69" y="420"/>
      <point x="34" y="314" type="curve"/>
      <point x="137" y="291" type="line"/>
      <point x="154" y="337"/>
      <point x="176" y="358"/>
      <point x="206" y="358" type="curve" smooth="yes"/>
      <point x="220" y="358"/>
      <point x="237" y="352"/>
      <point x="266" y="336" type="curve" smooth="yes"/>
      <point x="345" y="293" type="line" smooth="yes"/>
      <point x="382" y="273"/>
      <point x="420" y="261"/>
      <point x="450" y="261" type="curve" smooth="yes"/>
      <point x="524" y="261"/>
      <point x="585" y="320"/>
      <point x="620" y="425" type="curve"/>
      <point x="516" y="449" type="line"/>
      <point x="499" y="402"/>
      <point x="478" y="381"/>
      <point x="448" y="381" type="curve" smooth="yes"/>
      <point x="434" y="381"/>
      <point x="417" y="387"/>
      <point x="388" y="403" type="curve" smooth="yes"/>
    </contour>
  </outline>
</glyph>
<glyph name="sterling" format="2">
  <advance width="658"/>
  <unicode hex="00A3"/>
  <outline>
    <contour>
      <point x="300" y="275" type="line"/>
      <point x="452" y="275" type="line"/>
      <point x="474" y="377" type="line"/>
      <point x="299" y="377" type="line"/>
      <point x="298" y="453" type="line"/>
      <point x="298" y="528"/>
      <point x="343" y="577"/>
      <point x="412" y="577" type="curve" smooth="yes"/>
      <point x="478" y="577"/>
      <point x="517" y="543"/>
      <point x="529" y="473" type="curve"/>
      <point x="664" y="510" type="line"/>
      <point x="640" y="639"/>
      <point x="553" y="708"/>
      <point x="415" y="708" type="curve" smooth="yes"/>
      <point x="262" y="708"/>
      <point x="150" y="598"/>
      <point x="150" y="449" type="curve"/>
      <point x="150" y="377" type="line"/>
      <point x="76" y="377" type="line"/>
      <point x="54" y="275" type="line"/>
      <point x="151" y="275" type="line"/>
      <point x="151" y="218" type="line" smooth="yes"/>
      <point x="151" y="194"/>
      <point x="142" y="176"/>
      <point x="125" y="164" type="curve"/>
      <point x="60" y="160"/>
      <point x="5" y="127"/>
      <point x="-43" y="63" type="curve"/>
      <point x="61" y="-23" type="line"/>
      <point x="91" y="16"/>
      <point x="120" y="34"/>
      <point x="155" y="34" type="curve" smooth="yes"/>
      <point x="166" y="34"/>
      <point x="178" y="32"/>
      <point x="191" y="28" type="curve" smooth="yes"/>
      <point x="338" y="-17" type="line" smooth="yes"/>
      <point x="371" y="-27"/>
      <point x="402" y="-32"/>
      <point x="430" y="-32" type="curve" smooth="yes"/>
      <point x="501" y="-32"/>
      <point x="558" y="1"/>
      <point x="612" y="70" type="curve"/>
      <point x="510" y="149" type="line"/>
      <point x="482" y="113"/>
      <point x="454" y="97"/>
      <point x="421" y="97" type="curve" smooth="yes"/>
      <point x="409" y="97"/>
      <point x="396" y="99"/>
      <point x="382" y="103" type="curve" smooth="yes"/>
      <point x="249" y="144" type="line"/>
      <point x="282" y="171"/>
      <point x="300" y="211"/>
      <point x="300" y="261" type="curve"/>
    </contour>
  </outline>
</glyph>
<glyph name="yen" format="2">
  <advance width="723"/>
  <unicode hex="00A5"/>
  <outline>
    <contour>
      <point x="218" y="0" type="line"/>
      <point x="387" y="0" type="line"/>
      <point x="416" y="135" type="line"/>
      <point x="584" y="135" type="line"/>
      <point x="601" y="216" type="line"/>
      <point x="433" y="216" type="line"/>
      <point x="442" y="260" type="line"/>
      <point x="450" y="269" type="line"/>
      <point x="613" y="269" type="line"/>
      <point x="630" y="350" type="line"/>
      <point x="519" y="350" type="line"/>
      <point x="820" y="700" type="line"/>
      <point x="622" y="700" type="line"/>
      <point x="383" y="413" type="line"/>
      <point x="262" y="700" type="line"/>
      <point x="83" y="700" type="line"/>
      <point x="235" y="350" type="line"/>
      <point x="125" y="350" type="line"/>
      <point x="108" y="269" type="line"/>
      <point x="270" y="269" type="line"/>
      <point x="273" y="262" type="line"/>
      <point x="263" y="216" type="line"/>
      <point x="96" y="216" type="line"/>
      <point x="79" y="135" type="line"/>
      <point x="246" y="135" type="line"/>
    </contour>
  </outline>
</glyph>
<glyph name="dieresis" format="2">
  <advance width="596"/>
  <unicode hex="00A8"/>
  <anchor x="354" y="529" name="_top"/>
  <outline>
    <contour>
      <point x="263" y="602" type="curve"/>
      <point x="312" y="602"/>
      <point x="355" y="645"/>
      <point x="355" y="694" type="curve" smooth="yes"/>
      <point x="355" y="735"/>
      <point x="324" y="766"/>
      <point x="283" y="766" type="curve"/>
      <point x="232" y="766"/>
      <point x="189" y="723"/>
      <point x="189" y="674" type="curve" smooth="yes"/>
      <point x="189" y="633"/>
      <point x="221" y="602"/>
    </contour>
    <contour>
      <point x="493" y="602" type="curve"/>
      <point x="542" y="602"/>
      <point x="585" y="645"/>
      <point x="585" y="694" type="curve" smooth="yes"/>
      <point x="585" y="735"/>
      <point x="554" y="766"/>
      <point x="513" y="766" type="curve"/>
      <point x="462" y="766"/>
      <point x="419" y="723"/>
      <point x="419" y="674" type="curve" smooth="yes"/>
      <point x="419" y="633"/>
      <point x="451" y="602"/>
    </contour>
  </outline>
</glyph>
<glyph name="copyright" format="2">
  <advance width="767"/>
  <unicode hex="00A9"/>
  <outline>
    <contour>
      <point x="48" y="305" type="curve" smooth="yes"/>
      <point x="48" y="124"/>
      <point x="182" y="-11"/>
      <point x="363" y="-11" type="curve" smooth="yes"/>
      <point x="576" y="-11"/>
      <point x="756" y="175"/>
      <point x="756" y="395" type="curve" smooth="yes"/>
      <point x="756" y="576"/>
      <point x="622" y="711"/>
      <point x="441" y="711" type="curve" smooth="yes"/>
      <point x="228" y="711"/>
      <point x="48" y="525"/>
    </contour>
    <contour>
      <point x="684" y="387" type="curve" smooth="yes"/>
      <point x="684" y="211"/>
      <point x="537" y="56"/>
      <point x="370" y="56" type="curve" smooth="yes"/>
      <point x="226" y="56"/>
      <point x="120" y="165"/>
      <point x="120" y="313" type="curve" smooth="yes"/>
      <point x="120" y="489"/>
      <point x="267" y="644"/>
      <point x="434" y="644" type="curve" smooth="yes"/>
      <point x="578" y="644"/>
      <point x="684" y="535"/>
    </contour>
    <contour>
      <point x="216" y="322" type="curve" smooth="yes"/>
      <point x="216" y="229"/>
      <point x="286" y="161"/>
      <point x="383" y="161" type="curve" smooth="yes"/>
      <point x="437" y="161"/>
      <point x="491" y="181"/>
      <point x="530" y="217" type="curve"/>
      <point x="481" y="292" type="line"/>
      <point x="454" y="268"/>
      <point x="429" y="257"/>
      <point x="402" y="257" type="curve" smooth="yes"/>
      <point x="358" y="257"/>
      <point x="327" y="289"/>
      <point x="327" y="334" type="curve" smooth="yes"/>
      <point x="327" y="393"/>
      <point x="373" y="444"/>
      <point x="427" y="444" type="curve" smooth="yes"/>
      <point x="459" y="444"/>
      <point x="483" y="429"/>
      <point x="505" y="396" type="curve"/>
      <point x="585" y="462" type="line"/>
      <point x="557" y="510"/>
      <point x="496" y="542"/>
      <point x="435" y="542" type="curve" smooth="yes"/>
      <point x="319" y="542"/>
      <point x="216" y="438"/>
    </contour>
  </outline>
</glyph>
<glyph name="uni00AC" format="2">
  <advance width="563"/>
  <unicode hex="00AC"/>
  <outline>
    <contour>
      <point x="57.24502283118784" y="354.0" type="line"/>
      <point x="28.549887005734846" y="219.0" type="line"/>
      <point x="353.54988700573483" y="219.0" type="line"/>
      <point x="307.0" y="0.0" type="line"/>
      <point x="469.0" y="0.0" type="line"/>
      <point x="544.2450228311878" y="354.0" type="line"/>
    </contour>
  </outline>
</glyph>
<glyph name="acute" format="2">
  <advance width="505"/>
  <unicode hex="00B4"/>
  <anchor x="277" y="529" name="_top"/>
  <outline>
    <contour>
      <point x="336" y="747" type="line"/>
      <point x="219" y="611" type="line"/>
      <point x="349" y="611" type="line"/>
      <point x="514" y="747" type="line"/>
    </contour>
  </outline>
</glyph>
<glyph name="uni00B5" format="2">
  <advance width="611"/>
  <unicode hex="00B5"/>
  <outline>
    <contour>
      <point x="264.4424211234417" y="529.0" type="line"/>
      <point x="102.4424211234417" y="529.0" type="line"/>
      <point x="-54.84943451237467" y="-211.0" type="line"/>
      <point x="107.15056548762533" y="-211.0" type="line"/>
      <point x="150.9372171916499" y="-5.0" type="line"/>
      <point x="166.2995475066398" y="-8.0"/>
      <point x="181.87443438329979" y="-10.0"/>
      <point x="198.87443438329979" y="-10.0" type="curve"/>
      <point x="252.87443438329979" y="-10.0"/>
      <point x="305.2753393700201" y="6.0"/>
      <point x="350.6520362201208" y="36.0" type="curve"/>
      <point x="343.0" y="0.0" type="line"/>
      <point x="505.0" y="0.0" type="line"/>
      <point x="617.4424211234417" y="529.0" type="line"/>
      <point x="455.4424211234417" y="529.0" type="line"/>
      <point x="379.34717204557376" y="171.0" type="line"/>
      <point x="351.60814488048317" y="144.0"/>
      <point x="316.41979645543285" y="129.0"/>
      <point x="275.41979645543285" y="129.0" type="curve" smooth="yes"/>
      <point x="217.41979645543285" y="129.0"/>
      <point x="187.4969457988937" y="167.0"/>
      <point x="199.825226375755" y="225.0" type="curve"/>
    </contour>
  </outline>
</glyph>
<glyph name="multiply" format="2">
  <advance width="531"/>
  <unicode hex="00D7"/>
  <outline>
    <contour>
      <point x="94" y="130" type="line"/>
      <point x="271" y="280" type="line"/>
      <point x="383" y="132" type="line"/>
      <point x="471" y="205" type="line"/>
      <point x="358" y="354" type="line"/>
      <point x="537" y="505" type="line"/>
      <point x="476" y="584" type="line"/>
      <point x="298" y="433" type="line"/>
      <point x="184" y="584" type="line"/>
      <point x="97" y="511" type="line"/>
      <point x="211" y="360" type="line"/>
      <point x="33" y="209" type="line"/>
    </contour>
  </outline>
</glyph>
<glyph name="ae" format="2">
  <advance width="913"/>
  <unicode hex="00E6"/>
  <outline>
    <contour>
      <point x="218" y="-5" type="curve"/>
      <point x="290" y="-5"/>
      <point x="347" y="16"/>
      <point x="417" y="70" type="curve"/>
      <point x="465" y="19"/>
      <point x="538" y="-11"/>
      <point x="623" y="-11" type="curve" smooth="yes"/>
      <point x="702" y="-11"/>
      <point x="763" y="9"/>
      <point x="830" y="58" type="curve"/>
      <point x="741" y="159" type="line"/>
      <point x="714" y="135"/>
      <point x="678" y="122"/>
      <point x="636" y="122" type="curve" smooth="yes"/>
      <point x="572" y="122"/>
      <point x="525" y="157"/>
      <point x="509" y="210" type="curve"/>
      <point x="879" y="210" type="line"/>
      <point x="884" y="251"/>
      <point x="885" y="265"/>
      <point x="885" y="280" type="curve" smooth="yes"/>
      <point x="885" y="431"/>
      <point x="785" y="537"/>
      <point x="641" y="537" type="curve" smooth="yes"/>
      <point x="581" y="537"/>
      <point x="522" y="516"/>
      <point x="472" y="477" type="curve"/>
      <point x="437" y="516"/>
      <point x="379" y="538"/>
      <point x="303" y="538" type="curve" smooth="yes"/>
      <point x="236" y="538"/>
      <point x="165" y="524"/>
      <point x="81" y="493" type="curve"/>
      <point x="119" y="373" type="line"/>
      <point x="187" y="396"/>
      <point x="227" y="405"/>
      <point x="262" y="405" type="curve" smooth="yes"/>
      <point x="336" y="405"/>
      <point x="374" y="372"/>
      <point x="362" y="319" type="curve" smooth="yes"/>
      <point x="358" y="300" type="line"/>
      <point x="317" y="311"/>
      <point x="274" y="317"/>
      <point x="232" y="317" type="curve" smooth="yes"/>
      <point x="99" y="317"/>
      <point x="19" y="254"/>
      <point x="19" y="148" type="curve" smooth="yes"/>
      <point x="19" y="54"/>
      <point x="96" y="-5"/>
    </contour>
    <contour>
      <point x="634" y="404" type="curve" smooth="yes"/>
      <point x="684" y="404"/>
      <point x="722" y="372"/>
      <point x="736" y="322" type="curve"/>
      <point x="518" y="322" type="line"/>
      <point x="540" y="371"/>
      <point x="582" y="404"/>
    </contour>
    <contour>
      <point x="168" y="159" type="curve" smooth="yes"/>
      <point x="168" y="191"/>
      <point x="200" y="211"/>
      <point x="251" y="211" type="curve" smooth="yes"/>
      <point x="284" y="211"/>
      <point x="327" y="205"/>
      <point x="356" y="196" type="curve"/>
      <point x="359" y="178"/>
      <point x="363" y="161"/>
      <point x="369" y="145" type="curve"/>
      <point x="332" y="120"/>
      <point x="291" y="107"/>
      <point x="249" y="107" type="curve"/>
      <point x="200" y="107"/>
      <point x="168" y="128"/>
    </contour>
  </outline>
</glyph>
<glyph name="divide" format="2">
  <advance width="548"/>
  <unicode hex="00F7"/>
  <outline>
    <contour>
      <point x="334" y="501" type="curve"/>
      <point x="389" y="501"/>
      <point x="436" y="551"/>
      <point x="436" y="605" type="curve" smooth="yes"/>
      <point x="436" y="651"/>
      <point x="402" y="686"/>
      <point x="356" y="686" type="curve"/>
      <point x="298" y="686"/>
      <point x="252" y="637"/>
      <point x="252" y="582" type="curve" smooth="yes"/>
      <point x="252" y="536"/>
      <point x="287" y="501"/>
    </contour>
    <contour>
      <point x="49" y="297" type="line"/>
      <point x="514" y="297" type="line"/>
      <point x="540" y="421" type="line"/>
      <point x="75" y="421" type="line"/>
    </contour>
    <contour>
      <point x="236" y="33" type="curve"/>
      <point x="291" y="33"/>
      <point x="338" y="83"/>
      <point x="338" y="137" type="curve" smooth="yes"/>
      <point x="338" y="183"/>
      <point x="304" y="218"/>
      <point x="258" y="218" type="curve"/>
      <point x="200" y="218"/>
      <point x="154" y="169"/>
      <point x="154" y="114" type="curve" smooth="yes"/>
      <point x="154" y="68"/>
      <point x="189" y="33"/>
    </contour>
  </outline>
</glyph>
<glyph name="eogonek" format="2">
  <advance width="586"/>
  <unicode hex="0119"/>
  <outline>
    <contour>
      <point x="362" y="-198" type="curve"/>
      <point x="356" y="-128" type="line"/>
      <point x="345" y="-135"/>
      <point x="331" y="-139"/>
      <point x="318" y="-139" type="curve" smooth="yes"/>
      <point x="294" y="-139"/>
      <point x="280" y="-128"/>
      <point x="280" y="-108" type="curve" smooth="yes"/>
      <point x="280" y="-73"/>
      <point x="313" y="-38"/>
      <point x="381" y="-2" type="curve"/>
      <point x="423" y="9"/>
      <point x="462" y="28"/>
      <point x="503" y="58" type="curve"/>
      <point x="414" y="159" type="line"/>
      <point x="387" y="135"/>
      <point x="351" y="122"/>
      <point x="309" y="122" type="curve" smooth="yes"/>
      <point x="245" y="122"/>
      <point x="198" y="157"/>
      <point x="182" y="210" type="curve"/>
      <point x="552" y="210" type="line"/>
      <point x="557" y="251"/>
      <point x="558" y="265"/>
      <point x="558" y="280" type="curve" smooth="yes"/>
      <point x="558" y="431"/>
      <point x="458" y="537"/>
      <point x="314" y="537" type="curve" smooth="yes"/>
      <point x="155" y="537"/>
      <point x="24" y="403"/>
      <point x="24" y="242" type="curve" smooth="yes"/>
      <point x="24" y="100"/>
      <point x="131" y="-4"/>
      <point x="281" y="-11" type="curve"/>
      <point x="216" y="-52"/>
      <point x="184" y="-98"/>
      <point x="184" y="-148" type="curve" smooth="yes"/>
      <point x="184" y="-193"/>
      <point x="218" y="-221"/>
      <point x="272" y="-221" type="curve" smooth="yes"/>
      <point x="303" y="-221"/>
      <point x="336" y="-213"/>
    </contour>
    <contour>
      <point x="307" y="404" type="curve" smooth="yes"/>
      <point x="357" y="404"/>
      <point x="395" y="372"/>
      <point x="409" y="322" type="curve"/>
      <point x="191" y="322" type="line"/>
      <point x="213" y="371"/>
      <point x="255" y="404"/>
    </contour>
  </outline>
</glyph>
<glyph name="hcircumflex" format="2">
  <advance width="599"/>
  <unicode hex="0125"/>
  <outline>
    <contour>
      <point x="307" y="780" type="line"/>
      <point x="431" y="780" type="line"/>
      <point x="345" y="921" type="line"/>
      <point x="184" y="921" type="line"/>
      <point x="37" y="780" type="line"/>
      <point x="170" y="780" type="line"/>
      <point x="254" y="851" type="line"/>
    </contour>
    <contour>
      <point x="-7" y="0" type="line"/>
      <point x="152" y="0" type="line"/>
      <point x="228" y="361" type="line"/>
      <point x="255" y="387"/>
      <point x="287" y="400"/>
      <point x="324" y="400" type="curve" smooth="yes"/>
      <point x="383" y="400"/>
      <point x="415" y="360"/>
      <point x="403" y="300" type="curve" smooth="yes"/>
      <point x="339" y="0" type="line"/>
      <point x="498" y="0" type="line"/>
      <point x="565" y="315" type="line" smooth="yes"/>
      <point x="592" y="443"/>
      <point x="521" y="537"/>
      <point x="395" y="537" type="curve" smooth="yes"/>
      <point x="345" y="537"/>
      <point x="299" y="523"/>
      <point x="257" y="496" type="curve"/>
      <point x="300" y="700" type="line"/>
      <point x="142" y="700" type="line"/>
    </contour>
  </outline>
</glyph>
<glyph name="lacute" format="2">
  <advance width="257"/>
  <unicode hex="013A"/>
  <outline>
    <contour>
      <point x="280" y="918" type="line"/>
      <point x="163" y="782" type="line"/>
      <point x="293" y="782" type="line"/>
      <point x="458" y="918" type="line"/>
    </contour>
    <contour>
      <point x="-7" y="0" type="line"/>
      <point x="152" y="0" type="line"/>
      <point x="300" y="700" type="line"/>
      <point x="142" y="700" type="line"/>
    </contour>
  </outline>
</glyph>
<glyph name="OE" format="2">
  <advance width="1104"/>
  <unicode hex="0152"/>
  <outline>
    <contour>
      <point x="392" y="0" type="curve"/>
      <point x="1004" y="0" type="line"/>
      <point x="1035" y="149" type="line"/>
      <point x="697" y="149" type="line"/>
      <point x="728" y="188"/>
      <point x="751" y="233"/>
      <point x="764" y="281" type="curve"/>
      <point x="940" y="281" type="line"/>
      <point x="971" y="425" type="line"/>
      <point x="774" y="425" type="line"/>
      <point x="767" y="470"/>
      <point x="751" y="513"/>
      <point x="727" y="551" type="curve"/>
      <point x="1121" y="551" type="line"/>
      <point x="1152" y="700" type="line"/>
      <point x="466" y="700" type="line"/>
      <point x="457" y="701"/>
      <point x="447" y="701"/>
      <point x="438" y="701" type="curve"/>
      <point x="226" y="701"/>
      <point x="50" y="530"/>
      <point x="50" y="323" type="curve" smooth="yes"/>
      <point x="50" y="139"/>
      <point x="197" y="0"/>
    </contour>
    <contour>
      <point x="403" y="157" type="curve"/>
      <point x="300" y="157"/>
      <point x="224" y="231"/>
      <point x="224" y="333" type="curve" smooth="yes"/>
      <point x="224" y="448"/>
      <point x="315" y="543"/>
      <point x="427" y="543" type="curve"/>
      <point x="528" y="543"/>
      <point x="603" y="468"/>
      <point x="603" y="367" type="curve" smooth="yes"/>
      <point x="603" y="252"/>
      <point x="513" y="157"/>
    </contour>
  </outline>
</glyph>
<glyph name="circumflex" format="2">
  <advance width="506"/>
  <unicode hex="02C6"/>
  <anchor x="311" y="529" name="_top"/>
  <outline>
    <contour>
      <point x="400" y="609" type="line"/>
      <point x="524" y="609" type="line"/>
      <point x="438" y="750" type="line"/>
      <point x="277" y="750" type="line"/>
      <point x="130" y="609" type="line"/>
      <point x="263" y="609" type="line"/>
      <point x="347" y="680" type="line"/>
    </contour>
  </outline>
</glyph>
<glyph name="caron" format="2">
  <advance width="506"/>
  <unicode hex="02C7"/>
  <anchor x="309" y="529" name="_top"/>
  <outline>
    <contour>
      <point x="285" y="750" type="line"/>
      <point x="160" y="750" type="line"/>
      <point x="247" y="609" type="line"/>
      <point x="408" y="609" type="line"/>
      <point x="554" y="750" type="line"/>
      <point x="422" y="750" type="line"/>
      <point x="339" y="679" type="line"/>
    </contour>
  </outline>
</glyph>
<glyph name="dotaccent" format="2">
  <advance width="293"/>
  <unicode hex="02D9"/>
  <anchor x="203" y="529" name="_top"/>
  <outline>
    <contour>
      <point x="230" y="602" type="curve"/>
      <point x="279" y="602"/>
      <point x="322" y="645"/>
      <point x="322" y="694" type="curve" smooth="yes"/>
      <point x="322" y="735"/>
      <point x="291" y="766"/>
      <point x="250" y="766" type="curve"/>
      <point x="199" y="766"/>
      <point x="156" y="723"/>
      <point x="156" y="674" type="curve" smooth="yes"/>
      <point x="156" y="633"/>
      <point x="188" y="602"/>
    </contour>
  </outline>
</glyph>
<glyph name="ogonek" format="2">
  <advance width="506"/>
  <unicode hex="02DB"/>
  <anchor x="268" y="0" name="_bottom"/>
  <outline>
    <contour>
      <point x="268" y="0" type="curve"/>
      <point x="225" y="22" type="line"/>
      <point x="120" y="-28"/>
      <point x="68" y="-84"/>
      <point x="68" y="-148" type="curve" smooth="yes"/>
      <point x="68" y="-193"/>
      <point x="102" y="-221"/>
      <point x="156" y="-221" type="curve" smooth="yes"/>
      <point x="187" y="-221"/>
      <point x="220" y="-213"/>
      <point x="246" y="-198" type="curve"/>
      <point x="240" y="-128" type="line"/>
      <point x="229" y="-135"/>
      <point x="215" y="-139"/>
      <point x="202" y="-139" type="curve" smooth="yes"/>
      <point x="178" y="-139"/>
      <point x="164" y="-128"/>
      <point x="164" y="-108" type="curve" smooth="yes"/>
      <point x="164" y="-72"/>
      <point x="198" y="-37"/>
    </contour>
  </outline>
</glyph>
<glyph name="tilde" format="2">
  <advance width="506"/>
  <unicode hex="02DC"/>
  <anchor x="306" y="529" name="_top"/>
  <outline>
    <contour>
      <point x="221" y="602" type="line"/>
      <point x="237" y="639"/>
      <point x="251" y="655"/>
      <point x="268" y="655" type="curve" smooth="yes"/>
      <point x="311" y="655"/>
      <point x="352" y="595"/>
      <point x="418" y="595" type="curve" smooth="yes"/>
      <point x="472" y="595"/>
      <point x="514" y="635"/>
      <point x="549" y="718" type="curve"/>
      <point x="461" y="748" type="line"/>
      <point x="441" y="708"/>
      <point x="431" y="696"/>
      <point x="413" y="696" type="curve" smooth="yes"/>
      <point x="376" y="696"/>
      <point x="326" y="756"/>
      <point x="263" y="756" type="curve" smooth="yes"/>
      <point x="210" y="756"/>
      <point x="168" y="717"/>
      <point x="132" y="633" type="curve"/>
    </contour>
  </outline>
</glyph>
<glyph name="hungarumlaut" format="2">
  <advance width="545"/>
  <unicode hex="02DD"/>
  <anchor x="301" y="529" name="_top"/>
  <outline>
    <contour>
      <point x="271" y="746" type="line"/>
      <point x="144" y="613" type="line"/>
      <point x="263" y="613" type="line"/>
      <point x="423" y="746" type="line"/>
    </contour>
    <contour>
      <point x="489" y="746" type="line"/>
      <point x="362" y="613" type="line"/>
      <point x="472" y="613" type="line"/>
      <point x="644" y="746" type="line"/>
    </contour>
  </outline>
</glyph>
<glyph name="endash" format="2">
  <advance width="551"/>
  <unicode hex="2013"/>
  <outline>
    <contour>
      <point x="56" y="354" type="line"/>
      <point x="28" y="219" type="line"/>
      <point x="506" y="219" type="line"/>
      <point x="534" y="354" type="line"/>
    </contour>
  </outline>
</glyph>
<glyph name="daggerdbl" format="2">
  <advance width="449"/>
  <unicode hex="2021"/>
  <outline>
    <contour>
      <point x="107" y="0" type="line"/>
      <point x="233" y="0" type="line"/>
      <point x="270" y="174" type="line"/>
      <point x="386" y="174" type="line"/>
      <point x="412" y="298" type="line"/>
      <point x="296" y="298" type="line"/>
      <point x="319" y="402" type="line"/>
      <point x="434" y="402" type="line"/>
      <point x="461" y="526" type="line"/>
      <point x="345" y="526" type="line"/>
      <point x="382" y="700" type="line"/>
      <point x="256" y="700" type="line"/>
      <point x="219" y="526" type="line"/>
      <point x="102" y="526" type="line"/>
      <point x="75" y="402" type="line"/>
      <point x="193" y="402" type="line"/>
      <point x="170" y="298" type="line"/>
      <point x="53" y="298" type="line"/>
      <point x="27" y="174" type="line"/>
      <point x="144" y="174" type="line"/>
    </contour>
  </outline>
</glyph>
<glyph name="minus" format="2">
  <advance width="548"/>
  <unicode hex="2212"/>
  <outline>
    <contour>
      <point x="540" y="421" type="line"/>
      <point x="75" y="421" type="line"/>
      <point x="49" y="297" type="line"/>
      <point x="514" y="297" type="line"/>
    </contour>
  </outline>
</glyph>
<glyph name="notequal" format="2">
  <advance width="549"/>
  <unicode hex="2260"/>
  <outline>
    <contour>
      <point x="-3" y="91" type="line"/>
      <point x="131" y="91" type="line"/>
      <point x="216" y="189" type="line"/>
      <point x="491" y="189" type="line"/>
      <point x="517" y="313" type="line"/>
      <point x="324" y="313" type="line"/>
      <point x="392" y="391" type="line"/>
      <point x="534" y="391" type="line"/>
      <point x="560" y="515" type="line"/>
      <point x="500" y="515" type="line"/>
      <point x="584" y="611" type="line"/>
      <point x="451" y="611" type="line"/>
      <point x="367" y="515" type="line"/>
      <point x="95" y="515" type="line"/>
      <point x="69" y="391" type="line"/>
      <point x="259" y="391" type="line"/>
      <point x="191" y="313" type="line"/>
      <point x="52" y="313" type="line"/>
      <point x="26" y="189" type="line"/>
      <point x="83" y="189" type="line"/>
    </contour>
  </outline>
</glyph>
<glyph name="commaaccent" format="2">
  <advance width="275"/>
  <anchor x="80" y="0" name="_bottom"/>
  <outline>
    <contour>
      <point x="-8" y="-80" type="line"/>
      <point x="-108" y="-295" type="line"/>
      <point x="6" y="-295" type="line"/>
      <point x="140" y="-80" type="line"/>
    </contour>
  </outline>
</glyph>
<glyph name="reversequotedblleft" format="2">
  <advance width="472"/>
  <outline>
    <contour>
      <point x="237" y="750" type="line"/>
      <point x="70" y="750" type="line"/>
      <point x="139" y="466" type="line"/>
      <point x="260" y="466" type="line"/>
    </contour>
    <contour>
      <point x="451" y="750" type="line"/>
      <point x="284" y="750" type="line"/>
      <point x="353" y="466" type="line"/>
      <point x="474" y="466" type="line"/>
    </contour>
  </outline>
</glyph>
